Coordinates
version=1
nRows=13
nColumns=36
inDegrees=yes

Units are S.I. units (second, meters, Newtons, ...)
If the header above contains a line with 'inDegrees', this indicates whether rotational values are in degrees (yes) or radians (no).

endheader
time	pelvis_tilt	pelvis_list	pelvis_rotation	pelvis_tx	pelvis_ty	pelvis_tz	hip_flexion_r	hip_adduction_r	hip_rotation_r	knee_angle_r	knee_angle_r_beta	ankle_angle_r	subtalar_angle_r	mtp_angle_r	hip_flexion_l	hip_adduction_l	hip_rotation_l	knee_angle_l	knee_angle_l_beta	ankle_angle_l	subtalar_angle_l	mtp_angle_l	lumbar_extension	lumbar_bending	lumbar_rotation	arm_flex_r	arm_add_r	arm_rot_r	elbow_flex_r	pro_sup_r	arm_flex_l	arm_add_l	arm_rot_l	elbow_flex_l	pro_sup_l
      6.63333330	    -37.24092727	     -5.32820514	      0.66748708	      0.65540636	      0.57988701	     -0.02034954	    107.39322797	    -11.72149127	      0.62846258	     91.99471955	      1.60561075	     30.97797901	     -1.13416311	     -7.49999987	    110.91097314	    -13.15169696	      6.88568513	     98.30228289	      1.71569850	     22.89239485	     -9.95842104	     -7.49999987	    -38.93056693	     -1.24299189	      3.30436822	    107.38352957	      3.76875571	     82.05721479	    126.23728410	     82.67586703	    105.70855875	      2.39283862	     71.38129174	    125.60012295	     85.49708310
      6.65000000	    -37.25502430	     -5.49371876	      0.89126731	      0.65034673	      0.57285533	     -0.01761339	    107.75138794	    -11.77773611	      0.51274137	     92.69286552	      1.61779570	     31.08649268	     -1.39406806	     -7.49999987	    111.62174493	    -13.29558026	      6.95464790	     98.96897834	      1.72733453	     22.55698571	     -9.84001913	     -7.49999987	    -39.27532881	     -1.33311428	      3.21467158	    107.11751634	      3.90695890	     82.18344872	    126.30704493	     82.69110084	    105.68133626	      2.30833668	     71.45038619	    125.63003883	     85.51244984
      6.66666670	    -37.94422113	     -5.79861583	      0.98870738	      0.66004742	      0.57390781	     -0.01749227	    108.11870196	    -11.69861559	      0.28189532	     93.08682761	      1.62467163	     31.50672462	     -1.73027696	     -7.49999987	    112.27466407	    -13.65740055	      6.99138396	     99.03792644	      1.72853790	     22.08030571	     -9.80866413	     -7.49999987	    -38.43505961	     -1.21859577	      2.92116776	    105.42544907	      4.75386237	     83.50071667	    126.04613579	     82.74997588	    104.31036540	      1.76814026	     72.78726794	    126.06108659	     85.52388989
      6.68333330	    -37.89361007	     -6.00277445	      1.18741078	      0.64919163	      0.57161022	     -0.01830133	    108.11670521	    -11.78293037	      0.11837010	     93.24099578	      1.62736237	     31.45119082	     -1.88719564	     -7.49999987	    112.51798670	    -13.69047837	      6.85699008	     99.10806560	      1.72976206	     21.91432190	     -9.72499148	     -7.49999987	    -38.68389427	     -1.14561226	      2.82721525	    105.09456398	      4.94986492	     83.65269998	    125.83931580	     82.75471279	    104.50522014	      2.04050807	     72.68143490	    126.02444354	     85.50966566
      6.70000000	    -37.86616889	     -6.33710688	      1.26240389	      0.64801513	      0.56904611	     -0.01248486	    108.34973377	    -11.63445309	     -0.13634979	     93.54001290	      1.63258121	     31.44702878	     -2.26267181	     -7.49999987	    112.89174033	    -13.88518181	      7.17141575	     99.10896792	      1.72977781	     21.54666832	     -9.82900667	     -7.49999987	    -38.82221271	     -1.08774121	      2.81474490	    104.68083418	      5.12017900	     83.62722421	    125.38329929	     82.74577611	    104.95986110	      2.04728790	     72.53646183	    125.90777976	     85.45930334
      6.71666670	    -38.01894154	     -6.50129437	      1.28223484	      0.64894369	      0.56893932	     -0.01287555	    108.59186005	    -11.43428223	     -0.28589536	     93.67438352	      1.63492642	     31.37620779	     -2.71658717	     -7.49999987	    113.33926891	    -14.04355853	      7.32858384	     99.10986756	      1.72979351	     21.20200448	    -10.00666185	     -7.49999987	    -38.57918400	     -1.00810249	      2.86878792	    104.02253235	      5.23645341	     83.56041188	    124.89173335	     81.31015026	    104.75982205	      2.17191964	     72.77206941	    126.05732520	     83.86979250
      6.73333330	    -37.94191483	     -6.71213417	      1.25319510	      0.64825423	      0.56895041	     -0.01314713	    108.40628581	    -11.42214481	     -0.63761569	     93.52061908	      1.63224272	     31.41395558	     -2.74592950	     -7.49999987	    113.52201232	    -14.15841596	      7.61303092	     99.15243459	      1.73053644	     20.91011217	    -10.29050111	     -7.49999987	    -38.64568859	     -0.73088848	      2.93138751	    103.71505098	      5.29175090	     83.24379204	    125.02167178	     80.03481006	    104.96940789	      1.87368933	     72.68228318	    126.32760049	     82.15747768
      6.75000000	    -37.74523048	     -6.75453882	      1.21061567	      0.65455163	      0.57346113	     -0.01573077	    107.83092664	    -11.43243514	     -0.82470894	     93.24656512	      1.62745958	     31.33688155	     -2.71354206	     -7.49999987	    112.96628958	    -14.36652812	      7.53143042	     98.88174600	      1.72581204	     20.80295357	    -10.33754020	     -7.49999987	    -38.78170584	     -0.58462745	      2.99025059	    102.80693041	      5.40580693	     83.24432162	    125.23948588	     80.13405048	    104.21478559	      1.99653289	     72.95197341	    126.49964576	     82.21524449
      6.76666670	    -37.62236433	     -6.82963249	      1.15582778	      0.64829488	      0.57206686	     -0.01910095	    107.57930906	    -11.63280248	     -0.90120573	     93.01350674	      1.62339194	     31.05628149	     -2.59864587	     -7.49999987	    112.83601492	    -14.23822881	      7.50444244	     98.92953747	      1.72664616	     20.83507399	    -10.59700318	     -7.49999987	    -38.46220489	     -0.42326478	      3.03465031	    101.69278748	      5.02559479	     82.05163551	    125.77279035	     84.07447708	    103.63022178	      2.49362855	     72.78846343	    125.75316246	     84.06517811
      6.78333330	    -37.15029935	     -6.63598563	      1.03894026	      0.64915097	      0.57558715	     -0.01938627	    107.13875048	    -11.68220484	     -0.75586833	     92.84065463	      1.62037510	     30.79381039	     -2.25397421	     -7.49999987	    112.13448927	    -14.16975377	      7.24861186	     98.84269270	      1.72513043	     20.79748640	    -10.92857344	     -7.49999987	    -38.63686924	     -0.38139504	      3.08830297	    101.22095622	      4.81523977	     81.06421366	    126.23222857	     81.54549685	    103.45805366	      2.57123828	     72.50170178	    125.87128613	     81.48628317
      6.80000000	    -37.06362677	     -6.55154288	      0.88308877	      0.64344953	      0.58042199	     -0.01642687	    106.88383797	    -11.57817245	     -0.88114356	     92.20505988	      1.60928188	     30.39929824	     -2.02851359	     -7.49999987	    111.64322306	    -14.06791468	      7.13388691	     98.13836956	      1.71283767	     20.79174598	    -10.93067254	     -7.49999987	    -38.32267545	     -0.51684288	      3.18896059	    101.57751488	      4.90860161	     80.71935054	    126.09212350	     81.58786196	    103.68396283	      2.74851037	     72.26905559	    125.78489622	     81.52832168
      6.81666670	    -36.46776779	     -6.19607342	      0.77713528	      0.64968921	      0.58560668	     -0.01224997	    106.11926326	    -11.03031119	     -0.63408641	     91.87848111	      1.60358201	     30.04810477	     -2.53742991	     -7.49999987	    110.23295436	    -14.39653163	      7.01858983	     97.33069135	      1.69874103	     20.67001468	    -11.29632510	     -7.49999987	    -38.37789536	     -1.09933574	      3.40681985	    102.38002445	      5.27225747	     80.65396245	    125.45589575	     81.78287021	    103.58799721	      3.08548201	     72.07418258	    126.14960374	     81.74529518
      6.83333330	    -36.32062253	     -5.94995859	      0.43987242	      0.65976849	      0.59759269	     -0.01034477	    104.79485960	    -10.16814726	     -0.72507858	     90.80046722	      1.58476712	     29.89009434	     -2.81508725	     -7.49999987	    108.56452726	    -15.16889991	      6.67383597	     95.96946140	      1.67498308	     20.20536044	    -11.61517084	     -7.49999987	    -37.99587476	     -1.61243642	      3.45879879	    101.75169126	      5.86611141	     81.30142615	    125.32922155	     81.56807403	    102.73134666	      2.51409063	     72.45948210	    126.81051784	     81.50526052
